<svg width="20" height="20" viewBox="0 0 20 20" fill="none" xmlns="http://www.w3.org/2000/svg">
<path fill-rule="evenodd" clip-rule="evenodd" d="M9.99998 1.89998C5.52603 1.89998 1.89998 5.52603 1.89998 9.99998C1.89998 14.4739 5.52603 18.1 9.99998 18.1C14.4739 18.1 18.1 14.4739 18.1 9.99998C18.1 5.52603 14.4739 1.89998 9.99998 1.89998ZM9.99998 0.0999756C4.53192 0.0999756 0.0999756 4.53192 0.0999756 9.99998C0.0999756 15.468 4.53192 19.9 9.99998 19.9C15.468 19.9 19.9 15.468 19.9 9.99998C19.9 4.53192 15.468 0.0999756 9.99998 0.0999756Z" fill="#17B24A"/>
<path fill-rule="evenodd" clip-rule="evenodd" d="M14.6364 7.36358C14.9878 7.71505 14.9878 8.2849 14.6364 8.63637L9.63637 13.6364C9.2849 13.9878 8.71505 13.9878 8.36358 13.6364L5.36358 10.6364C5.01211 10.2849 5.01211 9.71505 5.36358 9.36358C5.71505 9.01211 6.2849 9.01211 6.63637 9.36358L8.99998 11.7272L13.3636 7.36358C13.7151 7.01211 14.2849 7.01211 14.6364 7.36358Z" fill="#17B24A"/>
</svg>
